<?xml version="1.0" encoding="UTF-8" standalone="no"?>
<!-- Created with Inkscape (http://www.inkscape.org/) -->

<svg
   width="874.61139"
   height="799.97876"
   viewBox="0 0 874.61139 799.97876"
   version="1.1"
   id="svg1"
   xmlns="http://www.w3.org/2000/svg"
   xmlns:svg="http://www.w3.org/2000/svg">
  <defs
     id="defs1" />
  <g
     id="layer1"
     transform="translate(224.70761,712.50342)">
    <circle
       style="fill:none;stroke:#ffffff;stroke-width:50;stroke-linecap:round;stroke-linejoin:round;stroke-dasharray:none"
       id="path10"
       cx="370.51398"
       cy="-358.25162"
       r="125"
       transform="rotate(30)" />
    <path
       id="circle2"
       style="color:#000000;fill:#ffffff;stroke-linecap:round;stroke-linejoin:round;-inkscape-stroke:none"
       d="m 380.28015,-655.94909 c -36.03677,-21.53346 -75.87387,-37.61844 -118.45799,-47.05911 -170.336488,-37.76269 -345.741642,39.41631 -432.97773,190.51364 -87.23609,151.09734 -66.37345,341.59383 51.49824,470.228221 C -1.7856439,86.368044 186.1671,123.75504 344.2926,50.019908 A 25,25 0 0 0 356.38553,16.796988 25,25 0 0 0 323.16261,4.7040534 C 264.7001,31.965577 201.69695,41.709938 140.60993,35.625028 A 337.15585,337.15585 0 0 1 39.436325,-1.5902598 337.15585,337.15585 0 0 1 -83.971428,-462.15426 337.15585,337.15585 0 0 1 376.59257,-585.56201 a 337.15585,337.15585 0 0 1 79.82816,64.66325 c 37.59498,50.71276 61.70593,111.79838 67.48895,177.89869 a 25,25 0 0 0 27.08425,22.72542 25,25 0 0 0 22.72543,-27.08425 C 562.31467,-477.71509 488.39047,-591.34871 380.28015,-655.94909 Z" />
  </g>
</svg>
